
        <svg xmlns="http://www.w3.org/2000/svg" xmlns:xlink="http://www.w3.org/1999/xlink" version="1.1" width="3187.5" 
        height="1526.156542576456" viewBox="0 0 3187.5 1526.156542576456">
			<rect fill="#fe7301" width="3187.5" height="1526.156542576456"/>
			<g transform="scale(9.375) translate(10, 10)">
				<defs id="SvgjsDefs1031"></defs><g id="SvgjsG1032" featureKey="monogramFeature-0" transform="matrix(7.836986940647105,0,0,7.836986940647105,0.6269598754797892,-14.420033810578843)" fill="#ffffff"><path d="M3.54 20.06 l-0.44 -0.08 c-0.22 -0.04 -0.5 -0.12 -0.64 -0.2 s-0.28 -0.16 -0.34 -0.18 s-0.14 -0.1 -0.16 -0.16 c-0.04 -0.08 -0.1 -0.16 -0.16 -0.18 s-0.14 -0.08 -0.2 -0.12 l-0.04 -0.06 l0.12 0.02 c0 -0.02 -0.08 -0.1 -0.22 -0.2 c-0.26 -0.18 -0.86 -1.06 -0.9 -1.24 c0 -0.08 -0.04 -0.16 -0.06 -0.18 c-0.04 -0.02 -0.1 -0.14 -0.14 -0.28 c-0.04 -0.16 -0.1 -0.32 -0.12 -0.38 l-0.2 -1.14 c-0.08 -0.6 -0.12 -0.9 -0.12 -1.1 l0.02 -0.24 c0.04 -0.2 0.1 -0.34 0.14 -0.34 c0.12 -0.04 0.22 -0.3 0.22 -0.46 c0 -0.04 0 -0.08 -0.02 -0.1 c-0.02 -0.04 -0.08 -0.06 -0.1 -0.06 l-0.04 0.02 l0.06 0.12 c0 0.02 0 0.02 -0.04 0.02 s-0.08 -0.04 -0.1 -0.08 c0 -0.1 0.06 -0.52 0.1 -0.52 c0.02 0 0.02 -0.04 0.02 -0.06 l0 -0.16 c0 -0.12 0.02 -0.28 0.1 -0.52 l0.06 -0.32 c0.02 -0.12 0.08 -0.36 0.14 -0.54 l0.12 -0.38 c0 -0.14 0.3 -0.94 0.34 -0.98 l0.04 -0.02 c0.04 0 0.06 0.04 0.06 0.08 s-0.02 0.08 -0.04 0.1 c-0.04 0.06 -0.06 0.14 -0.06 0.22 c0.02 0.06 0.02 0.08 0.04 0.08 l0.06 -0.04 c0.04 -0.06 0.08 -0.22 0.08 -0.34 c0 -0.08 -0.02 -0.16 -0.06 -0.16 s-0.08 -0.04 -0.08 -0.1 l0 -0.02 c0 -0.1 0.1 -0.4 0.14 -0.44 c0.02 -0.02 0.1 -0.18 0.16 -0.36 s0.14 -0.38 0.18 -0.42 c0.02 -0.04 0.04 -0.1 0.04 -0.14 c0 -0.02 0 -0.06 0.04 -0.08 c0.02 -0.02 0.1 -0.14 0.16 -0.26 c0.06 -0.14 0.14 -0.24 0.18 -0.24 l0.02 -0.02 l0 -0.04 c0 -0.14 0.24 -0.72 0.36 -0.88 c0.04 -0.04 0.06 -0.06 0.08 -0.06 s0.02 0.02 0.02 0.04 c0 0.1 -0.06 0.3 -0.16 0.56 c-0.08 0.14 -0.1 0.18 -0.32 0.5 l-0.22 0.5 c-0.04 0.18 -0.1 0.34 -0.14 0.36 s-0.06 0.06 -0.06 0.08 c0 0.04 0.02 0.06 0.06 0.06 c0.02 0 0.1 -0.1 0.16 -0.24 s0.16 -0.28 0.24 -0.32 c0.06 -0.02 0.08 -0.06 0.08 -0.08 l0 -0.08 c0 -0.14 0.1 -0.48 0.18 -0.56 c0.04 -0.04 0.22 -0.46 0.22 -0.52 l0 -0.12 c0 -0.04 0.04 -0.08 0.08 -0.08 s0.14 -0.12 0.2 -0.26 l0.26 -0.44 l0.52 -0.74 c0.08 -0.12 0.14 -0.22 0.14 -0.24 c0 -0.1 1.06 -1.34 1.4 -1.64 c0.2 -0.18 0.38 -0.34 0.4 -0.38 c0.04 -0.04 0.08 -0.08 0.12 -0.08 c0.02 0 0.08 -0.06 0.16 -0.12 c0.14 -0.16 0.36 -0.32 0.56 -0.44 c0.06 -0.02 0.1 -0.06 0.1 -0.08 l-0.02 -0.02 c-0.04 0 -0.1 0.02 -0.14 0.04 c-0.06 0.08 -0.36 0.2 -0.46 0.2 l-0.04 -0.02 c0 -0.02 0.1 -0.1 0.24 -0.2 c0.14 -0.08 0.26 -0.2 0.26 -0.24 l0 -0.02 c0 -0.02 0.02 -0.02 0.04 -0.02 l0.1 0 c0.04 0 0.08 -0.02 0.1 -0.06 c0.08 -0.2 0.58 -0.34 1.04 -0.34 c0.16 0 0.3 0.02 0.44 0.04 c0.14 0.04 0.36 0.14 0.48 0.24 c0.26 0.18 0.68 0.64 0.68 0.76 l0 0.04 c0 0.08 0.2 0.42 0.4 0.68 c0.18 0.22 0.36 0.76 0.36 1.14 l0 0.16 c0 0.22 -0.04 0.3 -0.2 0.48 c-0.08 0.12 -0.18 0.18 -0.22 0.18 l-0.02 -0.02 l0.02 -0.08 l-0.06 0.04 l-0.08 0.04 c-0.02 0 -0.12 0.06 -0.2 0.16 c-0.32 0.34 -0.7 0.64 -0.82 0.64 c-0.06 0 -0.08 0 -0.08 -0.04 l0.04 -0.08 c0 -0.02 0 -0.02 -0.04 -0.02 l-0.12 0 c-0.04 0 -0.08 -0.02 -0.08 -0.06 c0 -0.08 0.08 -0.22 0.22 -0.46 c0.14 -0.22 0.26 -0.46 0.28 -0.52 c0 -0.08 0.06 -0.2 0.1 -0.26 c0.04 -0.08 0.08 -0.16 0.08 -0.22 c0 -0.04 -0.02 -0.06 -0.06 -0.06 l-0.1 0.04 l0 -0.02 l0.06 -0.14 c0 -0.02 -0.02 -0.04 -0.06 -0.06 c-0.02 -0.02 -0.04 -0.04 -0.04 -0.06 l0.04 -0.08 c0.06 -0.1 0.1 -0.18 0.1 -0.24 c0 -0.14 -0.1 -0.22 -0.3 -0.22 c-0.18 0 -0.88 0.18 -1.24 0.32 c-0.26 0.1 -1 0.56 -1.06 0.66 c0 0.02 -0.1 0.12 -0.2 0.2 s-0.18 0.22 -0.2 0.28 c0 0.08 -0.04 0.14 -0.1 0.14 c-0.12 0 -0.38 0.26 -0.38 0.38 l0.02 0.04 l-0.04 0.02 l-0.02 0 c-0.06 0 -0.1 0.1 -0.14 0.24 c0 0.06 -0.06 0.1 -0.12 0.1 c-0.08 0 -0.1 0.04 -0.1 0.12 l0 0.04 c0 0.04 -0.02 0.06 -0.06 0.06 s-0.06 -0.02 -0.06 -0.04 l0 -0.06 l-0.04 0.04 l-0.04 0.06 c0 0.02 0.02 0.02 0.04 0.04 c0.04 0.02 0.04 0.04 0.04 0.06 s0 0.06 -0.04 0.1 c-0.02 0.04 -0.06 0.06 -0.1 0.06 l-0.04 0 l-0.06 0.02 l0 0.02 c0 0.02 0.02 0.04 0.04 0.04 l0.02 0.02 l-0.04 0.08 c-0.1 0.1 -0.24 0.18 -0.32 0.18 l-0.02 0 c-0.04 0 -0.04 0.02 -0.04 0.04 s0.04 0.08 0.08 0.12 l0.04 0.04 l0 0.02 l-0.2 -0.04 l0.08 0.06 c0.04 0.04 0.08 0.08 0.08 0.1 l-0.02 0 c-0.1 0 -0.38 0.34 -0.38 0.44 l0 0.06 c0 0.04 -0.04 0.1 -0.08 0.12 c-0.12 0.06 -0.24 0.28 -0.24 0.44 l0 0.04 c0 0.04 -0.02 0.06 -0.06 0.06 c-0.06 0 -0.08 0.04 -0.08 0.08 s0 0.08 -0.02 0.08 c-0.04 0 -0.08 0.12 -0.12 0.26 s-0.08 0.24 -0.1 0.24 s-0.08 0.04 -0.14 0.1 l-0.04 0.04 l0.06 -0.02 c0.02 0 0.02 0.02 0.02 0.04 c0 0.04 -0.02 0.1 -0.08 0.14 c-0.04 0.02 -0.06 0.06 -0.06 0.1 l0 0.08 c0 0.06 -0.02 0.14 -0.08 0.24 c-0.06 0.12 -0.1 0.26 -0.1 0.28 s-0.02 0.04 -0.04 0.04 l-0.1 -0.04 l-0.02 0.02 l0.02 0.1 c0 0.06 -0.02 0.12 -0.04 0.18 c-0.14 0.2 -0.16 0.24 -0.16 0.32 c0 0.18 -0.12 0.56 -0.16 0.56 c-0.02 0 -0.04 0.04 -0.04 0.08 l0 0.02 c0 0.14 -0.14 0.5 -0.2 0.5 c-0.04 0 -0.14 0.52 -0.14 0.62 l0 0.02 c0 0.1 -0.08 0.36 -0.18 0.68 c-0.04 0.12 -0.06 0.26 -0.06 0.32 l0 0.04 c0 0.02 0 0.04 -0.02 0.04 s-0.04 0.06 -0.04 0.1 c0 0.06 -0.02 0.32 -0.08 0.58 l-0.08 0.56 l-0.04 0.2 c-0.04 0.1 -0.06 0.3 -0.06 0.54 c0 0.68 0.14 1.7 0.3 1.96 c0.14 0.2 0.56 0.4 0.96 0.44 c0.18 0.02 0.34 0.06 0.34 0.1 c0 0.02 0 0.02 0.02 0.02 l0.02 -0.02 c0.02 -0.06 0.12 -0.1 0.18 -0.1 c0.02 0 0.04 0 0.04 0.02 l0.02 0.02 l0.08 -0.04 c0.04 -0.06 0.1 -0.1 0.16 -0.1 l0.06 0.02 c0 0.02 -0.02 0.02 -0.04 0.04 s-0.04 0.04 -0.04 0.06 l0.06 0 c0.04 0 0.08 -0.02 0.08 -0.06 l0 -0.02 c0 -0.02 0.02 -0.04 0.06 -0.04 l0.06 0 c0.18 0 0.62 -0.14 0.62 -0.22 c0 -0.02 0.04 -0.04 0.1 -0.04 s0.12 -0.04 0.14 -0.06 c0.04 -0.08 0.44 -0.32 0.78 -0.44 c0.16 -0.06 0.36 -0.2 0.44 -0.3 s0.32 -0.28 0.52 -0.4 s0.36 -0.26 0.36 -0.3 c0 -0.02 0 -0.04 0.02 -0.04 l0.02 0 c0.06 0 0.62 -0.42 0.84 -0.64 c0.04 -0.02 0.22 -0.18 0.4 -0.34 s0.36 -0.32 0.38 -0.36 c0 -0.04 0.08 -0.08 0.14 -0.08 l0.08 -0.02 l0 -0.02 c0 -0.04 0.06 -0.08 0.14 -0.14 s0.16 -0.1 0.16 -0.14 s0.04 -0.08 0.1 -0.08 c0.04 -0.02 0.18 -0.16 0.32 -0.28 c0.12 -0.14 0.26 -0.26 0.3 -0.26 c0.06 0 0.08 -0.04 0.08 -0.08 l0 -0.02 c0 -0.06 0.06 -0.12 0.14 -0.16 c0.08 -0.06 0.14 -0.14 0.14 -0.18 c0 -0.02 0.02 -0.06 0.08 -0.06 c0.04 0 0.26 -0.2 0.46 -0.44 c0.24 -0.24 0.38 -0.38 0.42 -0.38 l0.06 0.02 c0.02 0 0.04 -0.04 0.06 -0.12 c0.04 -0.1 0.1 -0.16 0.14 -0.16 l0.02 0 l0.02 -0.04 l0 -0.04 c0 -0.02 0.02 -0.04 0.04 -0.04 l0.02 0 c0.04 0 0.06 0.02 0.06 0.06 l0.02 0.08 l0.06 -0.14 c0 -0.04 -0.02 -0.06 -0.04 -0.08 s-0.04 -0.04 -0.04 -0.06 l0.04 -0.06 l0.34 -0.36 c0.16 -0.22 0.3 -0.3 0.4 -0.3 s0.2 -0.08 0.32 -0.24 s0.22 -0.24 0.3 -0.24 c0.02 0 0.04 0.02 0.04 0.08 l0 0.02 c-0.02 0.06 -0.04 0.1 -0.06 0.1 s-0.04 0.02 -0.04 0.04 l0.02 0.14 c0 0.04 -0.02 0.06 -0.04 0.06 c-0.04 0 -0.06 0.02 -0.06 0.04 c0 0.04 -0.02 0.04 -0.06 0.04 l-0.04 -0.02 l-0.04 0.04 l0 0.02 c0 0.02 0.02 0.04 0.06 0.04 c0.06 0 0.1 0.02 0.1 0.04 c0 0.04 -0.02 0.06 -0.04 0.06 s-0.06 0.06 -0.06 0.12 l0 0.04 c0 0.02 0 0.04 0.02 0.04 c0.04 0 0.12 -0.08 0.22 -0.24 c0.06 -0.1 0.16 -0.18 0.18 -0.18 l0.02 0.02 l-0.08 0.12 c-0.08 0.06 -0.12 0.12 -0.12 0.16 l0.04 0.12 l-0.02 0.04 c-0.02 0 -0.08 0 -0.14 0.02 c-0.06 0 -0.14 0 -0.18 -0.04 l-0.06 -0.02 c-0.02 0 -0.06 0.02 -0.1 0.06 l-0.06 0.06 l0.04 0.02 c0.04 0 0.04 0 0.04 0.02 l-0.04 0.12 c0 0.02 0.02 0.02 0.06 0.02 l0.06 0.02 l-0.02 0.02 l-0.04 0 c-0.04 0 -0.08 -0.02 -0.12 -0.04 l-0.08 -0.04 l-0.08 0.04 c0 0.02 0.02 0.06 0.08 0.08 c0.04 0.04 0.06 0.06 0.06 0.08 l-0.02 0.04 l-0.02 0 c-0.02 0 -0.04 0 -0.04 -0.02 l-0.02 -0.02 c-0.02 0 -0.04 0 -0.06 0.04 l-0.08 0.1 c0 0.02 0.02 0.02 0.04 0.02 l0.04 0 c0.02 0 0.06 0.02 0.1 0.06 l0 0.06 l-0.06 -0.02 c-0.02 0 -0.04 0.04 -0.06 0.08 c0 0.06 -0.06 0.1 -0.1 0.1 c-0.06 0 -0.08 -0.02 -0.08 -0.06 c0 -0.02 0.02 -0.04 0.06 -0.06 l0.02 -0.02 l-0.06 0 c-0.06 0.02 -0.1 0.04 -0.1 0.1 l0 0.08 l-0.04 0 c-0.04 0 -0.04 0.02 -0.06 0.04 l0 0.02 s0.02 0.02 0.06 0.02 s0.1 0.04 0.12 0.08 l0 0.04 c0 0.02 -0.02 0.04 -0.04 0.04 c-0.06 0 -0.08 -0.02 -0.1 -0.06 c0 -0.02 -0.02 -0.04 -0.06 -0.04 c-0.02 0 -0.02 0.02 -0.02 0.04 l0.04 0.16 l-0.02 -0.02 c-0.02 -0.04 -0.06 -0.06 -0.12 -0.06 s-0.12 0.04 -0.18 0.1 s-0.08 0.08 -0.08 0.1 s0.04 0.02 0.12 0.02 s0.16 0.02 0.16 0.06 c0 0.02 -0.02 0.04 -0.06 0.04 s-0.12 0.06 -0.2 0.14 c-0.06 0.06 -0.08 0.08 -0.1 0.08 l0.08 -0.08 l0.04 -0.12 c0 -0.02 0 -0.02 -0.02 -0.02 c-0.08 0 -0.14 0.12 -0.16 0.26 c0 0.04 -0.04 0.12 -0.1 0.16 s-0.12 0.08 -0.14 0.12 l-0.02 0 l-0.02 -0.04 c0 -0.06 -0.02 -0.1 -0.06 -0.1 s-0.08 0.06 -0.14 0.16 s-0.14 0.18 -0.18 0.18 s-0.06 0 -0.06 0.02 l0.02 0.06 c0 0.04 -0.06 0.1 -0.12 0.14 c-0.16 0.08 -0.26 0.18 -0.26 0.24 l0.02 0 c0.04 0 0.08 -0.02 0.12 -0.04 l0.12 -0.06 c0.02 0 0.02 0 0.02 0.02 c0 0.08 -0.26 0.22 -0.48 0.24 c-0.04 0 -0.06 0.02 -0.06 0.02 l0 0.04 c0 0.02 -0.04 0.04 -0.08 0.06 s-0.08 0.04 -0.08 0.06 l0.04 0.04 c0.02 0.02 0.04 0.02 0.06 0.02 s0.06 -0.02 0.1 -0.06 s0.08 -0.06 0.1 -0.06 c0 0.02 -0.06 0.12 -0.16 0.22 c-0.1 0.08 -0.14 0.12 -0.14 0.16 s0.02 0.06 0.06 0.08 l0.06 0.04 c0.04 0 0.1 -0.04 0.18 -0.14 c0.08 -0.08 0.16 -0.16 0.18 -0.16 s0.1 -0.08 0.38 -0.34 c0.08 -0.1 0.16 -0.14 0.18 -0.14 l0 0.02 c0 0.08 -0.1 0.24 -0.16 0.24 c-0.04 0 -0.12 0.04 -0.16 0.12 c-0.04 0.06 -0.14 0.16 -0.22 0.22 l-0.24 0.22 c-0.32 0.32 -0.44 0.44 -0.48 0.44 s-0.06 0.02 -0.06 0.04 l0 0.02 c0 0.02 -0.02 0.04 -0.04 0.04 s-0.04 -0.02 -0.04 -0.06 l0 -0.04 c0 -0.08 0 -0.12 -0.04 -0.12 c-0.02 0 -0.04 -0.02 -0.04 -0.04 l0 -0.04 c0 -0.02 0 -0.02 -0.02 -0.02 l-0.02 0 l-0.04 0.04 l0 0.04 c0 0.08 -0.1 0.24 -0.18 0.24 c-0.06 0 -0.1 0.02 -0.1 0.06 c0 0.02 -0.04 0.04 -0.08 0.04 l-0.26 -0.04 l-0.04 0.02 l0.02 0.06 l-0.04 0.12 c0 0.02 0.02 0.02 0.06 0.02 s0.08 -0.02 0.08 -0.06 s0.04 -0.06 0.08 -0.06 c0.06 0 0.14 0.04 0.16 0.08 c0 0.02 0.02 0.04 0.04 0.04 l0.06 -0.06 c0.04 -0.08 0.16 -0.14 0.22 -0.14 c0 0 0.02 0 0.02 0.02 c0 0.1 -0.24 0.34 -0.36 0.38 l-0.06 0 c-0.06 0 -0.08 -0.02 -0.08 -0.04 s0.02 -0.04 0.06 -0.06 l0.04 -0.02 l-0.04 -0.02 c-0.08 0 -0.36 0.26 -0.36 0.34 l0.04 0.02 c0.08 0 0.2 -0.04 0.28 -0.1 l0.04 -0.04 l-0.02 0.1 c-0.04 0.06 -0.14 0.14 -0.24 0.16 l-0.12 0.02 c-0.08 0 -0.12 -0.02 -0.12 -0.06 c0 -0.02 0 -0.04 0.04 -0.06 l0.04 -0.04 l-0.02 0 c-0.04 0 -0.12 0.04 -0.2 0.1 c-0.06 0.06 -0.18 0.12 -0.26 0.12 s-0.14 0 -0.14 0.04 l0.1 0.1 l0.08 0.06 c0.04 0 0.06 -0.02 0.08 -0.06 c0.04 -0.06 0.12 -0.08 0.14 -0.08 s0.02 0 0.02 0.02 l-0.04 0.02 c-0.04 0.04 -0.08 0.14 -0.08 0.22 c-0.02 0.1 -0.06 0.18 -0.1 0.18 s-0.08 0.04 -0.1 0.1 c-0.02 0.08 -0.2 0.26 -0.24 0.26 l-0.02 -0.02 c0 -0.04 -0.04 -0.06 -0.08 -0.06 c-0.02 0 -0.02 0.02 -0.02 0.08 l0 0.06 c0.04 0.1 0.08 0.16 0.1 0.16 c0.04 0 0.1 0.02 0.12 0.04 l0.06 0.02 l0.04 -0.02 c0.02 -0.02 0.02 -0.04 0.02 -0.06 c0 -0.04 -0.04 -0.06 -0.12 -0.06 c-0.04 0 -0.08 0 -0.08 -0.02 l0.04 -0.06 c0.08 -0.08 0.22 -0.18 0.28 -0.18 l-0.02 0.06 l0.04 0.02 c0.04 0 0.06 -0.02 0.06 -0.06 s0 -0.1 -0.02 -0.14 c0 -0.06 0.06 -0.12 0.1 -0.12 c0.02 0 0.04 0.02 0.04 0.04 c0.02 0.04 0.04 0.06 0.08 0.06 c0.02 0 0.04 -0.02 0.04 -0.04 l0 -0.02 c0 -0.1 0.16 -0.26 0.26 -0.26 c0.04 0 0.1 -0.04 0.14 -0.1 c0.02 -0.04 0.1 -0.08 0.14 -0.08 c0.06 0 0.12 -0.06 0.14 -0.14 s0.1 -0.14 0.16 -0.14 s0.1 0 0.1 0.02 l-0.06 0.08 c-0.04 0.06 -0.06 0.16 -0.06 0.24 l0 0.04 c0 0.04 -0.02 0.08 -0.04 0.08 c-0.04 0 -0.16 0.1 -0.28 0.22 c-0.12 0.1 -0.22 0.18 -0.28 0.18 l-0.08 -0.02 l-0.02 0.02 l0.04 0.1 c0 0.02 -0.02 0.04 -0.08 0.06 c-0.04 0.02 -0.06 0.04 -0.06 0.08 l0 0.04 c0 0.04 -0.1 0.08 -0.2 0.08 l-0.12 -0.02 c-0.06 0 -0.08 0.04 -0.08 0.12 c-0.02 0.08 -0.08 0.14 -0.16 0.14 c-0.04 0 -0.08 -0.02 -0.1 -0.08 l0 -0.02 c-0.02 0 -0.02 0.02 -0.04 0.06 s-0.08 0.08 -0.12 0.08 s-0.1 0.04 -0.12 0.08 l0 0.02 l0.02 0.02 l0.08 -0.02 l0.1 0 c0 0.04 -0.1 0.12 -0.28 0.26 c-0.26 0.18 -0.36 0.24 -0.78 0.5 c-0.12 0.06 -0.18 0.08 -0.22 0.08 c-0.02 0 -0.02 0 -0.02 -0.02 l0 -0.06 c0 -0.02 0 -0.02 -0.02 -0.02 c-0.04 0 -0.06 0.04 -0.06 0.08 l0 0.12 c0 0.12 -0.06 0.18 -0.28 0.22 c-0.14 0.02 -0.24 0.06 -0.26 0.08 c-0.04 0.08 -0.5 0.26 -0.6 0.26 l-0.04 0 c-0.04 0 -0.04 0.02 -0.04 0.08 l0 0.08 l-0.04 0.02 l-0.2 -0.04 c0 0.02 0 0.02 0.04 0.04 l0.04 0.04 l-0.02 0.02 l-0.12 -0.02 c-0.12 -0.02 -0.24 -0.04 -0.26 -0.06 c-0.02 0 -0.04 0.02 -0.04 0.06 l0 0.06 c0 0.06 -0.04 0.08 -0.12 0.08 l-0.12 -0.02 l0.06 -0.04 c0.04 -0.02 0.06 -0.02 0.06 -0.04 l-0.08 -0.02 c-0.06 0 -0.12 0.02 -0.16 0.04 c-0.06 0.02 -0.08 0.06 -0.08 0.06 c0 0.02 0 0.02 0.02 0.02 s0.04 0.02 0.04 0.04 l0 0.02 c-0.02 0.02 -0.04 0.04 -0.06 0.04 z M5.66 3.280000000000001 c0.06 0 0.14 -0.04 0.18 -0.08 l0.04 -0.08 c-0.02 0 -0.08 0.02 -0.16 0.08 l-0.1 0.06 c0 0.02 0.02 0.02 0.04 0.02 z M4.32 4.0600000000000005 l-0.02 -0.02 c0 -0.02 0.06 -0.12 0.18 -0.24 c0.26 -0.28 0.46 -0.44 0.5 -0.44 c0 0 0.02 0 0.02 0.02 s-0.06 0.1 -0.16 0.18 c-0.08 0.08 -0.22 0.22 -0.3 0.32 c-0.06 0.1 -0.18 0.18 -0.22 0.18 z M5.44 3.5599999999999987 c0.04 0 0.08 -0.04 0.08 -0.06 c-0.02 -0.04 -0.04 -0.06 -0.06 -0.06 c-0.04 0 -0.08 0.02 -0.08 0.06 l0 0.02 c0 0.02 0.02 0.04 0.06 0.04 z M5.2 3.719999999999999 c0.04 0 0.08 -0.02 0.08 -0.06 l0 -0.02 c0 -0.02 0 -0.04 -0.02 -0.04 c-0.04 0 -0.08 0.04 -0.08 0.06 l0 0.02 c0 0.02 0 0.04 0.02 0.04 z M2.9 5.960000000000001 c-0.02 0 -0.04 -0.02 -0.04 -0.06 s0.06 -0.16 0.16 -0.26 l0.26 -0.42 c0.06 -0.1 0.14 -0.18 0.16 -0.18 c0.04 0 0.06 0 0.06 -0.02 l0 -0.02 c0 -0.12 0.22 -0.44 0.3 -0.44 c0.04 0 0.08 -0.04 0.1 -0.1 c0.02 -0.1 0.24 -0.32 0.32 -0.34 l0.04 0.02 l0 0.02 c0 0.06 -0.14 0.22 -0.24 0.26 c-0.04 0.02 -0.08 0.08 -0.08 0.16 c0 0.06 -0.02 0.1 -0.1 0.1 l-0.14 0 l0.02 0.02 c0.04 0.02 0.08 0.06 0.08 0.08 c0 0.06 -0.16 0.3 -0.36 0.54 l-0.26 0.38 c-0.1 0.16 -0.2 0.26 -0.28 0.26 z M4.68 4.619999999999999 l0.22 -0.2 l0.14 -0.18 l-0.02 -0.02 c-0.06 0 -0.2 0.14 -0.3 0.3 z M4.28 4.76 l0.06 -0.02 c0.04 -0.02 0.06 -0.06 0.06 -0.08 s0 -0.02 -0.02 -0.02 l-0.06 0 c-0.04 0.02 -0.08 0.06 -0.08 0.08 s0.02 0.04 0.04 0.04 z M4.52 4.82 l0.02 -0.04 l-0.04 -0.04 l-0.02 0 l0 0.04 l0.02 0.04 l0.02 0 z M5.2 5 c0.02 0 0.04 -0.02 0.06 -0.06 c0 -0.02 0 -0.06 -0.02 -0.06 c0 0 -0.04 0.04 -0.04 0.06 l-0.02 0.04 z M3.74 5.84 l0.06 -0.06 c0.06 -0.04 0.12 -0.12 0.14 -0.2 l0.02 -0.08 l-0.06 0.06 l-0.14 0.18 z M4.4 6 l0.06 -0.06 c0 -0.02 0 -0.06 -0.04 -0.06 s-0.06 0.04 -0.06 0.06 c0.02 0.04 0.02 0.06 0.04 0.06 z M3.34 6.039999999999999 l0.04 -0.02 l0.04 -0.08 l-0.02 -0.04 l-0.04 0.02 l-0.04 0.08 z M3.54 6.0600000000000005 c0.04 0 0.06 -0.02 0.08 -0.06 l-0.02 -0.04 l-0.04 0.02 l-0.08 0.06 c0 0.02 0.02 0.02 0.06 0.02 z M2.8 6.119999999999999 c-0.04 0 -0.06 -0.02 -0.06 -0.04 l0 -0.02 c0.02 -0.04 0.06 -0.06 0.08 -0.06 c0.04 0 0.06 0.02 0.06 0.06 c0 0.02 -0.02 0.06 -0.08 0.06 z M3.24 6.34 c0.1 0 0.18 -0.04 0.2 -0.06 l-0.02 -0.04 c-0.04 0 -0.08 0 -0.14 0.02 c-0.12 0.02 -0.18 0.04 -0.18 0.06 s0.04 0.02 0.14 0.02 z M2.6 6.5600000000000005 c-0.06 0 -0.1 -0.02 -0.1 -0.06 c0 -0.06 0.1 -0.16 0.16 -0.16 c0 0 0.02 0 0.02 0.02 c0.02 0.02 0.02 0.04 0.02 0.06 c0 0.06 -0.04 0.14 -0.1 0.14 z M3.24 6.5 c0.02 0 0.04 -0.02 0.06 -0.06 l0.02 -0.04 l-0.02 -0.02 c-0.02 0 -0.04 0.04 -0.06 0.06 l0 0.06 z M2.46 6.699999999999999 c-0.02 0 -0.04 -0.02 -0.04 -0.04 s0.02 -0.04 0.08 -0.04 c0.04 0 0.08 0 0.08 0.02 z M3.64 7.16 c0.04 0 0.06 -0.02 0.06 -0.06 l0 -0.02 c0 -0.04 -0.02 -0.06 -0.06 -0.06 l-0.04 0.02 c-0.02 0.02 -0.04 0.04 -0.04 0.06 l0 0.02 c0.02 0.04 0.06 0.04 0.08 0.04 z M3.34 7.58 l0.08 -0.08 l0.06 -0.14 l0 -0.02 l-0.02 0 c-0.06 0 -0.14 0.1 -0.14 0.18 l0 0.02 c0 0.02 0 0.04 0.02 0.04 z M2.72 7.4399999999999995 l0.02 -0.06 l-0.02 -0.02 c0 -0.02 -0.02 -0.02 -0.02 -0.02 c-0.02 0 -0.02 0.02 -0.02 0.06 z M2.96 8.28 l0.06 -0.12 l0.02 -0.1 c-0.02 0 -0.04 0.04 -0.08 0.1 l-0.02 0.08 z M2.62 8.56 c0.04 0 0.06 -0.04 0.08 -0.1 l0.02 -0.08 l-0.02 -0.02 c-0.02 0 -0.04 0.02 -0.08 0.08 l-0.02 0.08 z M1.34 9.44 c0.02 0 0.06 -0.08 0.1 -0.16 l0.04 -0.16 l-0.02 -0.04 l-0.02 0 c-0.02 0 -0.02 0.02 -0.04 0.04 c-0.04 0.08 -0.08 0.2 -0.08 0.28 z M2.28 9.4 l0.04 -0.1 c0 -0.04 0 -0.08 -0.04 -0.08 c-0.02 0 -0.04 0.04 -0.04 0.08 c0 0.06 0.02 0.1 0.04 0.1 z M2.48 9.4 c0.02 0 0.04 -0.04 0.04 -0.1 c0 -0.04 -0.04 -0.08 -0.06 -0.08 c-0.04 0 -0.06 0.04 -0.06 0.08 c0.02 0.06 0.04 0.1 0.08 0.1 z M1.74 9.44 l0.04 -0.04 l0 -0.02 c0 -0.02 -0.02 -0.04 -0.04 -0.04 s-0.04 0.02 -0.04 0.06 c0 0.02 0.02 0.04 0.04 0.04 z M2.1 9.72 c0.02 0 0.04 -0.02 0.08 -0.08 l0.04 -0.06 c-0.02 0 -0.04 0 -0.06 0.02 c-0.04 0.02 -0.08 0.04 -0.08 0.06 l0 0.02 c0 0.02 0 0.04 0.02 0.04 z M1.18 9.88 l0.04 -0.08 l0 -0.06 c-0.02 0 -0.02 0 -0.02 0.02 c-0.02 0.02 -0.04 0.04 -0.04 0.06 l0 0.02 c0 0.04 0 0.04 0.02 0.04 z M1.8 10.34 c0.02 0 0.06 -0.04 0.08 -0.1 c0.04 -0.04 0.04 -0.06 0.04 -0.06 c-0.02 0 -0.04 0.02 -0.06 0.04 l-0.08 0.1 c0 0.02 0 0.02 0.02 0.02 z M0.9 10.62 l0.06 -0.06 c0 -0.04 0 -0.06 -0.04 -0.06 s-0.06 0.02 -0.06 0.06 z M12.12 10.94 c-0.02 0 -0.02 -0.02 -0.02 -0.04 l0 -0.06 c0.02 0 0.02 0 0.02 0.02 l0.02 0.04 z M1.66 11.12 c0.04 0 0.06 -0.02 0.06 -0.06 s-0.02 -0.06 -0.04 -0.06 c0 0 -0.04 0.02 -0.04 0.06 l0 0.02 c0 0.02 0 0.04 0.02 0.04 z M11.92 11.22 c-0.04 0 -0.06 -0.02 -0.06 -0.06 l0 -0.02 l0.04 0 c0.04 0.02 0.06 0.04 0.06 0.06 s-0.02 0.02 -0.04 0.02 z M0.76 11.44 l0 -0.08 c0 -0.04 -0.04 -0.08 -0.06 -0.08 s-0.04 0.02 -0.04 0.04 l0.02 0.04 c0.04 0.06 0.06 0.08 0.08 0.08 z M1.58 11.6 c0.02 0 0.04 -0.04 0.08 -0.16 l0.04 -0.1 l-0.18 0.14 l0.02 0.08 z M0.74 11.56 l-0.04 -0.06 c-0.02 -0.02 -0.08 -0.06 -0.1 -0.06 l-0.02 0.02 c0 0.02 0 0.02 0.04 0.04 z M11.58 11.68 c0.02 0 0.08 -0.04 0.12 -0.1 l0.04 -0.08 l-0.02 -0.02 c-0.02 0 -0.06 0.02 -0.12 0.08 l-0.04 0.1 c0 0.02 0 0.02 0.02 0.02 z M12.3 11.94 c-0.04 0 -0.04 -0.02 -0.04 -0.04 c0.02 -0.04 0.04 -0.06 0.06 -0.06 c0 0 0.02 0.02 0.02 0.06 l0 0.02 z M0.48 12.18 c0.04 0 0.06 -0.04 0.08 -0.1 l0.02 -0.08 l-0.02 -0.04 s-0.02 0 -0.06 0.04 s-0.08 0.1 -0.08 0.14 c0 0.02 0.02 0.04 0.06 0.04 z M11.6 12.059999999999999 c0.02 0 0.06 -0.02 0.06 -0.06 l0.02 -0.02 l-0.06 0 c-0.06 0.02 -0.08 0.04 -0.08 0.06 s0.02 0.02 0.06 0.02 z M1.26 12.26 l0.02 -0.04 l-0.02 -0.04 l-0.02 0 c-0.02 0 -0.02 0.02 -0.02 0.04 l0.02 0.04 l0.02 0 z M11.34 12.4 l0.04 -0.06 l0 -0.04 c0 -0.02 0 -0.02 -0.02 -0.02 c-0.04 0 -0.06 0.02 -0.06 0.06 c0 0.02 0.02 0.06 0.04 0.06 z M11.98 12.4 l-0.04 -0.02 l0 -0.02 c0 -0.02 0.02 -0.02 0.02 -0.02 c0.02 0 0.04 0 0.04 0.02 l0.02 0.02 c0 0.02 -0.02 0.02 -0.04 0.02 z M0.8 12.440000000000001 l-0.02 -0.02 c0 -0.02 -0.02 -0.02 -0.04 -0.02 c0 0 -0.02 0 -0.02 0.02 l0 0.02 l0.08 0 z M0.32 12.7 c0.06 0 0.16 -0.04 0.18 -0.1 l0.04 -0.1 c0 -0.04 -0.04 -0.06 -0.1 -0.06 c-0.04 0 -0.06 0.02 -0.06 0.06 l0 0.04 c0 0.04 -0.02 0.08 -0.04 0.08 c-0.04 0 -0.06 0.02 -0.06 0.06 c0 0.02 0.02 0.02 0.04 0.02 z M1.1 12.620000000000001 c0.02 0 0.08 -0.02 0.12 -0.06 l0.04 -0.04 c0 -0.02 -0.02 -0.02 -0.06 -0.02 c-0.06 0 -0.12 0.04 -0.12 0.06 l-0.02 0.04 z M11.68 12.719999999999999 l-0.08 0 l0 -0.02 c0 -0.02 0.02 -0.02 0.02 -0.02 c0.02 0 0.04 0 0.04 0.02 z M1.02 12.780000000000001 l0.04 -0.02 l0 -0.02 l-0.08 0 l0 0.02 z M11.58 13.18 c-0.02 0 -0.02 -0.02 -0.02 -0.04 l0 -0.02 c0 -0.04 0.04 -0.06 0.08 -0.06 c0.02 0 0.02 0 0.02 0.02 l0 0.04 c-0.02 0.02 -0.04 0.06 -0.08 0.06 z M0.94 13.219999999999999 l0.02 -0.04 l-0.02 -0.04 c0 -0.02 0 -0.02 -0.02 -0.02 l0 0.06 z M0.58 13.26 l0 -0.02 l-0.02 -0.04 c0 -0.02 0 -0.02 -0.02 -0.02 l0 0.04 l0.02 0.04 l0.02 0 z M10.36 13.36 c0.02 0 0.04 0 0.06 -0.02 l0.04 -0.08 l0 -0.02 l-0.04 0 c-0.04 0 -0.08 0.04 -0.08 0.08 l0 0.02 c0 0.02 0.02 0.02 0.02 0.02 z M11.44 13.34 l-0.04 -0.02 l0 -0.02 l0.04 -0.02 l0.04 0.02 l0 0.02 z M10.58 13.54 c0.02 -0.02 0.04 -0.04 0.04 -0.06 l0 -0.04 c0 -0.02 -0.02 -0.04 -0.06 -0.04 c-0.02 0 -0.04 0.04 -0.04 0.08 s0.02 0.06 0.04 0.06 l0.02 0 z M9.88 13.5 c0.02 0 0.04 -0.02 0.06 -0.04 c0 -0.04 0 -0.06 -0.04 -0.06 s-0.06 0.02 -0.06 0.06 c0.02 0.02 0.02 0.04 0.04 0.04 z M10.1 13.6 l0.08 -0.02 c0.04 -0.02 0.06 -0.06 0.06 -0.08 l0 -0.02 l-0.02 0 c-0.02 0 -0.04 0 -0.06 0.02 c-0.04 0.04 -0.06 0.08 -0.06 0.1 z M0.92 13.620000000000001 l0.06 -0.02 c0 -0.02 -0.04 -0.04 -0.06 -0.06 l-0.04 -0.02 l-0.02 0.04 c0 0.04 0.04 0.06 0.06 0.06 z M0.06 13.86 l-0.02 0 c-0.02 0 -0.02 -0.02 -0.04 -0.04 c0 -0.04 0.02 -0.1 0.04 -0.14 s0.02 -0.06 0.04 -0.06 c0 0.02 0.02 0.04 0.02 0.1 l0 0.04 c0 0.04 -0.02 0.08 -0.04 0.1 z M10.58 14.219999999999999 l0 -0.04 c0 -0.04 0.08 -0.12 0.18 -0.2 c0.12 -0.08 0.16 -0.12 0.18 -0.12 l-0.04 0.12 c-0.06 0.06 -0.14 0.14 -0.18 0.14 c-0.06 0 -0.1 0.02 -0.12 0.06 c0 0.02 0 0.04 -0.02 0.04 z M9.76 14 l0.08 -0.04 l0 -0.02 c0 -0.02 -0.02 -0.04 -0.04 -0.04 s-0.06 0.02 -0.08 0.06 c0 0.02 0 0.04 0.04 0.04 z M10.24 14.120000000000001 c0 0 -0.02 -0.02 -0.02 -0.06 c0 -0.02 0.02 -0.06 0.04 -0.06 s0.04 0.02 0.04 0.04 l0 0.02 c-0.02 0.04 -0.04 0.06 -0.06 0.06 z M9.96 14.18 l0.04 -0.02 l-0.02 -0.02 c0 -0.02 -0.02 -0.02 -0.04 -0.02 c0 0 -0.02 0 -0.02 0.02 l0 0.02 z M9.4 14.34 l0.06 -0.08 c0.04 -0.04 0.04 -0.06 0.04 -0.06 l-0.06 0 c-0.04 0.02 -0.08 0.06 -0.08 0.08 c0 0.04 0.02 0.06 0.04 0.06 z M10.36 14.34 c-0.02 0 -0.06 -0.02 -0.08 -0.06 l-0.02 -0.04 l0.04 0.02 c0.02 0.02 0.06 0.04 0.06 0.06 l0 0.02 z M10.44 14.379999999999999 l0.02 -0.06 c0 -0.04 0.02 -0.06 0.04 -0.06 l0.02 0 l0 0.02 l-0.04 0.08 z M10.76 14.4 l-0.04 -0.02 l0 -0.02 l0.04 -0.02 l0.04 0.02 l0 0.02 z M9.18 14.559999999999999 c0.02 0 0.04 0 0.04 -0.02 l-0.02 -0.02 l-0.04 -0.02 l-0.02 0.04 z M10.72 14.66 c0 0 -0.02 0 -0.02 -0.02 s0.04 -0.04 0.1 -0.08 l0.08 -0.04 l-0.02 0.06 c-0.04 0.06 -0.1 0.08 -0.14 0.08 z M8.58 14.66 l0.08 -0.02 c0.04 -0.02 0.08 -0.06 0.08 -0.1 l-0.04 -0.02 l-0.06 0.04 c-0.04 0.04 -0.06 0.08 -0.06 0.1 z M9.74 14.68 c-0.02 0 -0.02 -0.02 -0.02 -0.04 l0 -0.02 c0 -0.04 0.04 -0.06 0.04 -0.06 c0.02 0 0.04 0.02 0.04 0.06 c0 0.02 -0.02 0.06 -0.06 0.06 z M9.94 14.68 l-0.04 -0.06 c0 -0.04 0.02 -0.06 0.06 -0.06 s0.04 0.02 0.04 0.06 z M9.04 14.719999999999999 c0.02 0 0.04 -0.02 0.04 -0.04 c0 -0.04 -0.02 -0.06 -0.04 -0.06 l-0.04 0.08 z M9.44 16.12 l-0.08 -0.04 c-0.02 -0.02 -0.04 -0.04 -0.04 -0.08 c0 -0.08 0.1 -0.22 0.24 -0.3 c0.08 -0.02 0.12 -0.1 0.12 -0.16 l0 -0.06 l0.04 0 c0.04 0 0.14 -0.06 0.22 -0.12 c0.42 -0.38 0.74 -0.64 0.76 -0.64 c0 0.06 -0.4 0.46 -0.44 0.46 l-0.02 0.02 l0.02 0.08 c0 0.08 -0.12 0.2 -0.2 0.2 l-0.08 -0.02 l0.04 0.08 c0 0.06 -0.12 0.16 -0.2 0.16 l-0.08 -0.02 l0 0.04 c0 0.06 -0.12 0.2 -0.2 0.2 c-0.06 0 -0.12 0.08 -0.12 0.12 l0 0.02 l0.04 0.04 z M9.12 15.280000000000001 l0.02 -0.02 l-0.02 -0.06 l-0.06 -0.08 c-0.02 0 -0.02 0.04 -0.02 0.08 c0.02 0.04 0.04 0.08 0.08 0.08 z M8.98 15.54 l0.1 -0.02 l0.14 -0.12 c0 -0.04 -0.04 -0.06 -0.1 -0.06 s-0.1 0.02 -0.1 0.02 z M8.62 15.719999999999999 c0.04 0 0.08 -0.04 0.08 -0.1 l0 -0.04 c-0.02 0 -0.04 0 -0.06 0.02 c-0.04 0.02 -0.08 0.06 -0.08 0.08 s0.02 0.04 0.06 0.04 z M8.48 15.719999999999999 c0.02 0 0.02 -0.02 0.02 -0.04 c0 -0.04 -0.02 -0.06 -0.06 -0.06 l-0.04 0.02 l0.02 0.04 z M8.88 15.76 c-0.02 0 -0.02 -0.02 -0.04 -0.04 c0 -0.02 0 -0.04 0.02 -0.04 c0 0 0.02 0 0.02 0.02 l0.02 0.02 z M7.64 16.42 c0.1 0 0.2 -0.02 0.2 -0.04 l-0.08 -0.06 l-0.04 -0.02 c0 -0.02 0.02 -0.02 0.06 -0.04 l0.2 -0.16 l0.06 -0.08 c0 -0.02 -0.02 -0.02 -0.06 -0.02 s-0.12 0.08 -0.18 0.14 c-0.06 0.08 -0.14 0.14 -0.18 0.14 s-0.1 0.04 -0.12 0.08 l-0.02 0.02 c0 0.02 0.06 0.04 0.16 0.04 z M8.12 16.22 c0.04 0 0.06 -0.02 0.06 -0.02 l0 -0.02 l-0.02 -0.04 c-0.02 0 -0.04 0 -0.06 0.02 l-0.08 0.04 c0 0.02 0.04 0.02 0.1 0.02 z M8.94 16.46 c-0.02 0 -0.02 -0.02 -0.02 -0.04 l0.02 -0.08 c0.02 -0.06 0.06 -0.1 0.1 -0.1 l0.04 0 l-0.02 0.02 c-0.04 0.02 -0.06 0.06 -0.06 0.1 l0 0.02 c0 0.04 -0.02 0.08 -0.06 0.08 z M8.88 16.740000000000002 c-0.02 0 -0.06 -0.04 -0.06 -0.06 l0 -0.04 l0.04 0 l0.08 0.06 c0 0.02 -0.02 0.04 -0.06 0.04 z M7.08 16.84 c0.02 0 0.04 -0.02 0.06 -0.06 l0 -0.02 l-0.04 -0.02 l-0.04 0.02 l0 0.02 c0 0.04 0.02 0.06 0.02 0.06 z M7.84 16.96 c-0.02 0 -0.04 -0.02 -0.04 -0.06 l0 -0.02 c0 -0.02 0.02 -0.04 0.06 -0.06 l0.04 0 c0.02 0 0.02 0.02 0.02 0.06 c-0.02 0.04 -0.04 0.08 -0.08 0.08 z M7.3 17 c0.04 0 0.04 -0.04 0.04 -0.1 c-0.02 -0.04 -0.04 -0.08 -0.06 -0.08 l-0.04 0.08 c0 0.06 0.02 0.1 0.06 0.1 z M6.94 17.12 l-0.06 -0.1 l0.12 0 c0.1 0 0.14 -0.04 0.14 -0.08 l-0.04 -0.04 l-0.04 0.04 l-0.06 0.04 c-0.02 0 -0.02 -0.02 -0.04 -0.06 l-0.04 -0.06 c-0.02 0 -0.06 0.02 -0.1 0.06 l-0.06 0.08 c0 0.02 0.02 0.04 0.06 0.06 z M7.52 17 l-0.02 -0.02 c0 -0.02 -0.02 -0.02 -0.04 -0.02 c0 0 -0.02 0 -0.02 0.02 l0 0.02 l0.08 0 z M6.68 17.2 l0.02 -0.04 l-0.02 -0.04 c-0.02 -0.04 -0.06 -0.06 -0.08 -0.06 l-0.02 0.04 l0 0.04 c0.04 0.04 0.06 0.06 0.08 0.06 l0.02 0 z M6.62 17.6 c0.02 0 0.04 0 0.04 -0.02 c0.02 -0.04 0.08 -0.1 0.16 -0.12 c0.22 -0.12 0.34 -0.2 0.34 -0.26 c0 -0.02 -0.02 -0.04 -0.04 -0.04 l-0.02 0 c-0.08 0 -0.2 0.08 -0.3 0.18 c-0.08 0.1 -0.18 0.16 -0.2 0.16 s-0.04 0.02 -0.04 0.04 l0.02 0.04 z M5.98 17.62 l0.18 -0.12 c0.06 -0.04 0.14 -0.08 0.2 -0.08 l0.06 0 c0.04 0 0.1 -0.02 0.12 -0.06 l0.02 -0.04 c0 -0.02 -0.02 -0.04 -0.04 -0.04 c-0.04 0 -0.06 0.04 -0.06 0.08 l0 0.02 l-0.02 0 l-0.02 -0.04 c0 -0.02 0.02 -0.06 0.06 -0.08 l0.06 -0.06 c0 -0.02 0 -0.02 -0.02 -0.02 c-0.06 0 -0.52 0.32 -0.54 0.4 l-0.02 0.04 l0.02 0 z M7.06 17.66 c0 -0.02 0 -0.06 -0.02 -0.08 l-0.02 0 l-0.02 0.04 c0.02 0.02 0.02 0.04 0.04 0.04 l0.02 0 z M5.46 18.4 c0.02 0 0.04 -0.02 0.06 -0.06 s0.1 -0.12 0.16 -0.16 c0.06 -0.02 0.18 -0.06 0.24 -0.06 c0.08 0 0.2 -0.04 0.26 -0.1 c0.04 -0.04 0.12 -0.08 0.16 -0.08 l0.1 0.02 l0 -0.02 l-0.08 -0.06 c-0.04 -0.04 -0.08 -0.06 -0.08 -0.08 s0.04 -0.04 0.08 -0.08 l0.08 -0.08 l-0.1 0.04 c-0.08 0.04 -0.14 0.1 -0.14 0.12 s-0.04 0.04 -0.08 0.04 s-0.14 0.06 -0.18 0.12 c-0.06 0.06 -0.16 0.1 -0.22 0.1 c-0.04 0 -0.08 0.02 -0.08 0.06 c0 0.02 -0.04 0.06 -0.1 0.08 c-0.06 0 -0.1 0.06 -0.1 0.12 z M6.98 17.9 c0 0 -0.02 -0.06 -0.02 -0.14 c-0.02 -0.08 -0.04 -0.1 -0.08 -0.1 l-0.04 0.02 l-0.08 0.06 l0.1 0.08 c0.06 0.04 0.1 0.08 0.12 0.08 z M4.92 19.06 c0.04 0 0.06 0 0.06 -0.04 s0.04 -0.06 0.1 -0.06 c0.14 0 0.54 -0.22 0.6 -0.32 c0.02 -0.06 0.06 -0.08 0.08 -0.08 s0.06 0.02 0.06 0.08 c0 0.04 0.06 0.1 0.12 0.1 l0.06 0.02 c0.02 0 0.02 -0.02 0.02 -0.04 l-0.02 -0.1 c0 -0.04 0.02 -0.08 0.06 -0.1 c0.04 -0.04 0.06 -0.12 0.06 -0.16 s0.02 -0.08 0.08 -0.08 c0.18 0 0.48 -0.12 0.48 -0.2 c0 -0.04 0.02 -0.06 0.06 -0.06 l0.08 0 c0.04 0 0.06 -0.02 0.06 -0.04 c-0.02 -0.04 -0.04 -0.06 -0.08 -0.06 l-0.1 0.02 l-0.06 -0.04 l-0.02 -0.04 c0 -0.02 0.02 -0.02 0.04 -0.02 l0.04 0 l0 -0.02 c-0.02 -0.02 -0.04 -0.02 -0.06 -0.02 c-0.06 0 -0.12 0.04 -0.12 0.1 l0 0.04 c0 0.02 -0.02 0.04 -0.08 0.06 c-0.06 0 -0.16 0.06 -0.2 0.12 s-0.1 0.12 -0.14 0.12 c-0.02 0 -0.06 0.02 -0.08 0.06 s-0.16 0.12 -0.3 0.16 s-0.24 0.1 -0.24 0.14 s-0.06 0.1 -0.16 0.14 s-0.24 0.12 -0.3 0.18 c-0.06 0.04 -0.14 0.06 -0.18 0.06 l-0.08 -0.02 l0.02 0.04 c0.04 0.04 0.1 0.06 0.14 0.06 z M5.4 18 c0.06 0 0.12 -0.02 0.16 -0.08 l0.02 -0.06 l-0.02 -0.02 c-0.04 0 -0.08 0.04 -0.16 0.08 l-0.06 0.06 c0 0.02 0.02 0.02 0.06 0.02 z M5.24 18.12 l0.04 -0.02 l0 -0.02 l-0.04 -0.02 l-0.04 0.02 l0 0.02 z M5.66 18.36 c0.02 0 0.06 0 0.08 -0.02 c0.08 -0.04 0.14 -0.1 0.14 -0.12 s-0.02 -0.02 -0.04 -0.02 c-0.06 0.02 -0.18 0.08 -0.2 0.14 l0 0.02 l0.02 0 z M4.72 18.34 l0.04 -0.02 l0 -0.02 l-0.08 0 l0 0.02 z M5.22 18.52 c0.04 0 0.08 -0.04 0.08 -0.06 c0 -0.04 -0.04 -0.06 -0.06 -0.06 c-0.04 0 -0.06 0.02 -0.08 0.06 l0 0.02 c0 0.02 0.02 0.04 0.06 0.04 z M5.38 18.62 c0.02 0 0.04 -0.02 0.04 -0.06 c0 -0.02 -0.02 -0.04 -0.04 -0.04 l-0.04 0.04 l0 0.02 c0 0.02 0.02 0.04 0.04 0.04 z M4.7 18.84 l0.02 -0.04 c0.02 -0.02 0.06 -0.04 0.1 -0.04 l0.1 0.02 l0.02 -0.02 l-0.02 -0.04 c-0.04 -0.06 -0.12 -0.1 -0.16 -0.1 l-0.04 0 l-0.02 0.16 l0 0.06 z M6.16 18.74 c0.04 0 0.06 -0.04 0.06 -0.06 c0 -0.04 -0.02 -0.06 -0.04 -0.06 c0 0 -0.04 0.02 -0.04 0.06 l0 0.02 c0 0.02 0 0.04 0.02 0.04 z M5.32 19.06 l-0.02 -0.04 l-0.06 0 l0 0.02 c0 0.02 0.02 0.02 0.04 0.02 l0.04 0 z M4.56 19.22 c0.08 -0.02 0.14 -0.04 0.14 -0.06 l0 -0.02 c0 -0.04 -0.02 -0.06 -0.06 -0.06 l-0.16 0.02 c-0.06 0.02 -0.08 0.04 -0.08 0.06 c0 0.04 0.06 0.06 0.16 0.06 z M4.12 19.24 c0.04 0 0.06 0 0.06 -0.02 l-0.02 -0.02 l-0.04 -0.02 l-0.04 0.02 l0 0.02 z M5.08 19.34 c0.04 0 0.08 -0.02 0.1 -0.06 l0 -0.02 c0 -0.02 0 -0.02 -0.02 -0.02 l-0.1 0.02 l-0.08 -0.06 c-0.02 0 -0.02 0.02 -0.02 0.04 c0.02 0.06 0.06 0.1 0.12 0.1 z M3.62 19.66 l0.04 -0.02 c0.04 -0.02 0.08 -0.04 0.08 -0.06 c0 0 -0.04 -0.02 -0.1 -0.02 c-0.04 0 -0.06 0.02 -0.06 0.04 l0 0.02 c0 0.02 0.02 0.04 0.04 0.04 z M4.14 19.92 l-0.04 0 c-0.02 0 -0.04 0 -0.04 -0.02 c0 -0.04 0.02 -0.06 0.08 -0.06 l0.08 0.02 c0 0.02 -0.04 0.04 -0.08 0.06 z"></path></g><g id="SvgjsG1033" featureKey="fHLFJf-0" transform="matrix(1.8215601500363416,0,0,1.8215601500363416,119.45353247614163,50.333087957346095)" fill="#fcfdff"><path d="M9.65 10.07 q-0.87 -0.53 -1.69 -0.53 t-1.49 0.43 t-1.04 1.19 t-0.37 1.72 t0.37 1.73 t1.04 1.21 t1.49 0.44 q0.76 0 1.63 -0.45 t1.55 -1.19 l2.68 2.86 q-1.18 1.3 -2.83 2.07 t-3.27 0.77 q-2.12 0 -3.81 -0.95 t-2.65 -2.64 t-0.96 -3.79 q0 -2.08 0.98 -3.73 t2.71 -2.59 t3.91 -0.94 q1.6 0 3.22 0.71 t2.7 1.89 l-2.68 3.18 q-0.62 -0.86 -1.49 -1.39 z M15.3295 9.06 l4.5 0 l0 10.94 l-4.5 0 l0 -10.94 z M19.1695 4.300000000000001 q0.64 0.64 0.64 1.64 t-0.64 1.64 t-1.64 0.64 t-1.64 -0.64 t-0.64 -1.64 t0.64 -1.64 t1.64 -0.64 t1.64 0.64 z M28.429000000000002 9.33 q0.85 -0.47 1.91 -0.47 l0 4.06 q-0.44 -0.06 -0.86 -0.06 q-1.16 0 -1.82 0.51 t-0.66 1.41 l0 5.22 l-4.5 0 l0 -10.94 l4.5 0 l0 1.6 q0.58 -0.86 1.43 -1.33 z M37.2885 12.54 q-0.66 0 -1.05 0.55 t-0.39 1.47 q0 0.94 0.39 1.49 t1.05 0.55 q1 0 1.34 -1.18 l3.64 1.68 q-0.6 1.46 -1.97 2.26 t-3.25 0.8 q-1.72 0 -3.02 -0.69 t-2.01 -1.95 t-0.71 -2.94 q0 -1.7 0.71 -2.99 t2.02 -1.99 t3.05 -0.7 q1.78 0 3.14 0.83 t2.04 2.33 l-3.58 1.52 q-0.44 -1.04 -1.4 -1.04 z M43.898 5.16 l4.5 0 l0 14.84 l-4.5 0 l0 -14.84 z M59.3275 9.64 q1.32 0.74 2.02 2.11 t0.7 3.21 q0 0.38 -0.02 0.58 l-7.12 0 q0.22 0.64 0.69 0.97 t1.13 0.33 q1.18 0 2.22 -0.98 l2.34 2.3 q-0.88 0.98 -2.13 1.49 t-2.83 0.51 q-1.84 0 -3.19 -0.69 t-2.06 -1.95 t-0.71 -2.94 q0 -1.72 0.72 -3 t2.05 -1.98 t3.07 -0.7 q1.8 0 3.12 0.74 z M57.197500000000005 12.34 q-0.37 -0.44 -0.95 -0.44 q-0.56 0 -0.93 0.42 t-0.51 1.14 l2.72 0 q0.04 -0.68 -0.33 -1.12 z M73.76700000000001 9.38 q0.89 0.52 1.39 1.46 t0.5 2.18 l0 6.98 l-4.5 0 l0 -5.68 q0 -0.68 -0.36 -1.09 t-0.94 -0.41 q-0.66 0 -1.05 0.48 t-0.39 1.28 l0 5.42 l-4.5 0 l0 -10.94 l4.5 0 l0 1.56 q0.56 -0.86 1.41 -1.31 t1.91 -0.45 q1.14 0 2.03 0.52 z M86.6665 9.59 q1.4 0.69 2.16 1.96 t0.76 2.97 t-0.76 2.97 t-2.16 1.97 t-3.26 0.7 t-3.26 -0.7 t-2.16 -1.97 t-0.76 -2.97 t0.76 -2.97 t2.16 -1.96 t3.26 -0.69 t3.26 0.69 z M82.21650000000001 13.04 q-0.45 0.58 -0.45 1.54 t0.45 1.54 t1.19 0.58 t1.19 -0.58 t0.45 -1.54 t-0.45 -1.54 t-1.19 -0.58 t-1.19 0.58 z M90.156 9.06 l4.56 0 l1.74 6.52 l1.68 -6.52 l4.16 0 l1.74 6.52 l1.72 -6.52 l4.34 0 l-4 10.94 l-4.4 0 l-1.56 -5.76 l-1.62 5.76 l-4.4 0 z"></path></g>
			</g>
		</svg>
	